<svg xmlns="http://www.w3.org/2000/svg" xmlns:xlink="http://www.w3.org/1999/xlink" width="397px" height="145px"
    viewBox="0 0 397 145" version="1.1">
    <title>Group 20 Copy 2</title>
    <defs>
        <path
            d="M29.921587,81.6064332 C41.1388107,86.3602815 54.1067443,81.3868564 59.2684949,70.3513903 L89.9680677,4.71782477 L89.9680677,4.71782477 C78.750844,-0.0360235616 65.7829103,4.93740158 60.6211598,15.9728677 L29.921587,81.6064332 L29.921587,81.6064332 Z"
            id="path-1" />
        <filter x="-7.5%" y="-5.6%" width="115.0%" height="111.2%" filterUnits="objectBoundingBox" id="filter-2">
            <feOffset dx="0" dy="0" in="SourceAlpha" result="shadowOffsetOuter1" />
            <feGaussianBlur stdDeviation="1.5" in="shadowOffsetOuter1" result="shadowBlurOuter1" />
            <feColorMatrix values="0 0 0 0 0   0 0 0 0 0   0 0 0 0 0  0 0 0 0.3 0" type="matrix"
                in="shadowBlurOuter1" />
        </filter>
        <path
            d="M19.6432274,0 C30.4918823,0 39.2864547,8.81575583 39.2864547,19.6905418 C39.2864547,30.5653277 30.4918823,39.3810835 19.6432274,39.3810835 C8.79457246,39.3810835 0,30.5653277 0,19.6905418 C0,8.81575583 8.79457246,0 19.6432274,0 Z M15.3573946,10.3118976 C14.2528251,10.3118976 13.3573946,11.2073281 13.3573946,12.3118976 L13.3573946,27.069186 C13.3573946,27.4502957 13.4662844,27.8234716 13.6712433,28.1447759 C14.2652752,29.0760116 15.5017489,29.3493692 16.4329845,28.7553373 L28.0001352,21.3766931 C28.2456851,21.2200577 28.4540612,21.0116816 28.6106966,20.7661317 C29.2047285,19.834896 28.9313709,18.5984223 28.0001352,18.0043904 L16.4329845,10.6257462 C16.1116802,10.4207874 15.7385043,10.3118976 15.3573946,10.3118976 Z"
            id="path-3" />
        <filter x="-11.5%" y="-11.4%" width="122.9%" height="122.9%" filterUnits="objectBoundingBox" id="filter-4">
            <feOffset dx="0" dy="0" in="SourceAlpha" result="shadowOffsetOuter1" />
            <feGaussianBlur stdDeviation="1.5" in="shadowOffsetOuter1" result="shadowBlurOuter1" />
            <feColorMatrix values="0 0 0 0 0   0 0 0 0 0   0 0 0 0 0  0 0 0 0.3 0" type="matrix"
                in="shadowBlurOuter1" />
        </filter>
    </defs>
    <g id="VEEL_BRANDING" stroke="none" stroke-width="1" fill="none" fill-rule="evenodd">
        <g id="Group-20-Copy-2">
            <path
                d="M206.502203,112.340088 L231.958333,51.8589981 L231.958333,51.8589981 L217.860132,51.8589981 C215.349753,51.8589981 213.104754,53.421839 212.233275,55.7760965 L199.155298,91.1056147 C198.963572,91.6235526 198.388276,91.8879997 197.870338,91.6962739 C197.596363,91.5948561 197.380437,91.3787014 197.279311,91.1046185 L184.246551,55.7820735 C183.376765,53.4247026 181.130198,51.8589981 178.617485,51.8589981 L164,51.8589981 L164,51.8589981 L189.45613,112.340088 C190.899631,115.769694 194.258161,118 197.979167,118 C201.700173,118 205.058703,115.769694 206.502203,112.340088 Z M268.165936,118 C273.300079,118 278.07374,117.081375 282.486918,115.244125 C286.900096,113.406875 290.657851,110.683808 293.760185,107.074924 L293.760185,107.074924 L283.666678,96.9044324 C281.744106,99.0916349 279.461051,100.737505 276.817513,101.842042 C274.173976,102.946579 271.257346,103.498848 268.067623,103.498848 C264.462799,103.498848 261.316771,102.738795 258.629539,101.218689 C255.942307,99.6985836 253.872264,97.5223171 252.419411,94.68989 C251.845027,93.5700932 251.384185,92.3708137 251.036883,91.0920514 L251.008614,90.9861907 L297.299466,90.9005617 C297.584939,89.5328311 297.794286,88.2889448 297.927506,87.1689027 L297.954888,86.9307893 C298.085973,85.7497 298.151515,84.6014187 298.151515,83.4859455 C298.151515,77.3836506 296.818823,71.9484526 294.153438,67.1803513 C291.488053,62.4122499 287.823149,58.6666657 283.158726,55.9435987 C278.494302,53.2205317 273.1253,51.8589981 267.051718,51.8589981 C260.825205,51.8589981 255.183109,53.3080198 250.125433,56.206063 C245.067756,59.1041062 241.069679,63.0410706 238.131201,68.0169562 C235.192724,72.9928417 233.723485,78.630356 233.723485,84.9294991 C233.723485,91.2505141 235.220033,96.9208365 238.213129,101.940466 C241.206225,106.960096 245.297154,110.891592 250.485915,113.734955 C255.674676,116.578318 261.568017,118 268.165936,118 Z M251.375,79.1972789 L251.376965,79.1892865 C251.692184,77.9543806 252.104393,76.8001316 252.613593,75.7265394 C253.950243,72.9083601 255.848286,70.7245517 258.307722,69.1751145 C260.767157,67.6256772 263.665014,66.8509586 267.001292,66.8509586 C270.187866,66.8509586 272.866512,67.5358547 275.037231,68.9056471 C277.207951,70.2754395 278.87609,72.2571473 280.041649,74.8507705 C280.595289,76.0827416 281.031916,77.4578426 281.351529,78.9760736 L281.382576,79.1289016 L251.375,79.1972789 Z M339.654573,118 C344.788716,118 349.562376,117.081375 353.975554,115.244125 C358.388732,113.406875 362.146488,110.683808 365.248821,107.074924 L365.248821,107.074924 L355.155315,96.9044324 C353.232742,99.0916349 350.949687,100.737505 348.30615,101.842042 C345.662612,102.946579 342.745982,103.498848 339.556259,103.498848 C335.951436,103.498848 332.805408,102.738795 330.118176,101.218689 C327.430943,99.6985836 325.360901,97.5223171 323.908048,94.68989 C323.333664,93.5700932 322.872821,92.3708137 322.525519,91.0920514 L322.497251,90.9861907 L368.788102,90.9005617 C369.073575,89.5328311 369.282922,88.2889448 369.416143,87.1689027 L369.443525,86.9307893 C369.574609,85.7497 369.640152,84.6014187 369.640152,83.4859455 C369.640152,77.3836506 368.307459,71.9484526 365.642074,67.1803513 C362.97669,62.4122499 359.311786,58.6666657 354.647362,55.9435987 C349.982939,53.2205317 344.613936,51.8589981 338.540355,51.8589981 C332.313841,51.8589981 326.671746,53.3080198 321.614069,56.206063 C316.556392,59.1041062 312.558315,63.0410706 309.619837,68.0169562 C306.68136,72.9928417 305.212121,78.630356 305.212121,84.9294991 C305.212121,91.2505141 306.708669,96.9208365 309.701765,101.940466 C312.694861,106.960096 316.78579,110.891592 321.974551,113.734955 C327.163313,116.578318 333.056653,118 339.654573,118 Z M322.863636,79.1972789 L322.865601,79.1892865 C323.18082,77.9543806 323.59303,76.8001316 324.10223,75.7265394 C325.438879,72.9083601 327.336922,70.7245517 329.796358,69.1751145 C332.255794,67.6256772 335.153651,66.8509586 338.489929,66.8509586 C341.676502,66.8509586 344.355148,67.5358547 346.525868,68.9056471 C348.696587,70.2754395 350.364726,72.2571473 351.530285,74.8507705 C352.083925,76.0827416 352.520552,77.4578426 352.840165,78.9760736 L352.871212,79.1289016 L322.863636,79.1972789 Z M397,109.174242 L397,34.8257576 C397,29.9514263 393.048574,26 388.174242,26 C383.299911,26 379.348485,29.9514263 379.348485,34.8257576 L379.348485,109.174242 C379.348485,114.048574 383.299911,118 388.174242,118 C393.048574,118 397,114.048574 397,109.174242 Z"
                id="Combined-Shape-Copy-15" fill="#FFFFFF" fill-rule="nonzero" />
            <g id="Group-19">
                <circle id="Oval" fill="#4119F4" cx="72.5" cy="72.5" r="72.5" />
                <g id="Group-17-Copy" transform="translate(25, 29.0068)">
                    <g id="Combined-Shape-Copy-3"
                        transform="translate(59.9448, 43.1621) rotate(6) translate(-59.9448, -43.1621)">
                        <use fill="black" fill-opacity="1" filter="url(#filter-2)" xlink:href="#path-1" />
                        <use fill="#FFFFFF" fill-rule="evenodd" xlink:href="#path-1" />
                    </g>
                    <g id="Combined-Shape" transform="translate(0, 23.1886)">
                        <use fill="black" fill-opacity="1" filter="url(#filter-4)" xlink:href="#path-3" />
                        <use fill="#FFFFFF" fill-rule="evenodd" xlink:href="#path-3" />
                    </g>
                </g>
            </g>
        </g>
    </g>
</svg>